# xmcd
#
# Track frame offsets: 
#        150
#        20290
#        37193
#        63049
#        83189
#
# Disc length: 1335 seconds
#
# Revision: 0
# Processed by: cddbd v1.5.2PL0 Copyright (c) Steve Scherf et al.
# Submitted via: ExactAudioCopyFreeDBPlugin 1.0
#
DISCID=34053505
DTITLE=中村仁美 - オーロラ
DYEAR=2019
DGENRE=JPop
TTITLE0=オーロラ
TTITLE1=僕の彼女
TTITLE2=十五夜
TTITLE3=オーロラ（Instrumental）
TTITLE4=僕の彼女（Instrumental）
EXTD=
EXTT0=
EXTT1=
EXTT2=
EXTT3=
EXTT4=
PLAYORDER=
